<?xml version="1.0" encoding="UTF-8"?>
<svg width="224px" height="33px" viewBox="0 0 224 33" version="1.1" xmlns="http://www.w3.org/2000/svg" xmlns:xlink="http://www.w3.org/1999/xlink">
    <title>Intelligence X Logo</title>
    <defs>
        <polygon id="path-1" points="1.1414 1.122 4.7774 1.122 4.7774 26.4382 1.1414 26.4382"></polygon>
    </defs>
    <g id="Step2" stroke="none" stroke-width="1" fill="none" fill-rule="evenodd">
        <g id="_X_Products_V2" transform="translate(-129.000000, -46.000000)">
            <g id="Group" transform="translate(129.000000, 44.000000)">
                <path d="M18.043,31.0254 L0.829,31.0254 C0.359,31.0254 0.001,30.6654 0.001,30.1974 L0.001,28.1794 C0.001,27.6754 0.359,27.3174 0.829,27.3174 L18.043,27.3174 C18.511,27.3174 18.871,27.6754 18.871,28.1794 L18.871,30.1974 C18.871,30.6654 18.511,31.0254 18.043,31.0254" id="Fill-1" fill="#1585FF"></path>
                <path d="M24.121,26.7052 L24.121,2.7212 C24.121,2.3972 24.371,2.1092 24.735,2.1092 L26.245,2.1092 C26.605,2.1092 26.855,2.3972 26.855,2.7212 L26.855,26.7052 C26.855,27.0652 26.605,27.3172 26.245,27.3172 L24.735,27.3172 C24.371,27.3172 24.121,27.0652 24.121,26.7052" id="Fill-3" fill="#383838"></path>
                <path d="M32.6876,26.7052 L32.6876,9.9232 C32.6876,9.5992 32.9016,9.3112 33.2656,9.3112 L34.7776,9.3112 C35.1376,9.3112 35.3876,9.5992 35.3876,9.9232 L35.3876,11.6872 C36.2896,10.2112 37.7656,8.9512 40.4656,8.9512 C44.8956,8.9512 47.1996,12.1912 47.1996,16.9452 L47.1996,26.7052 C47.1996,27.0652 46.9496,27.3172 46.5896,27.3172 L45.0736,27.3172 C44.7156,27.3172 44.4656,27.0652 44.4656,26.7052 L44.4656,16.7652 C44.4656,13.2712 42.6256,11.3632 39.9256,11.3632 C37.2616,11.3632 35.3876,13.2712 35.3876,16.7652 L35.3876,26.7052 C35.3876,27.0652 35.1376,27.3172 34.7776,27.3172 L33.2656,27.3172 C32.9016,27.3172 32.6876,27.0652 32.6876,26.7052" id="Fill-5" fill="#383838"></path>
                <path d="M53.1718,20.9786 L53.1718,11.7606 L50.3978,11.7606 C50.0398,11.7606 49.7858,11.5426 49.7858,11.1846 L49.7858,9.9246 C49.7858,9.6006 50.0398,9.3106 50.3978,9.3106 C52.3078,9.3106 53.2078,8.8786 53.2078,6.6086 L53.2078,5.2426 C53.2078,4.9186 53.4618,4.6286 53.8198,4.6286 L55.2218,4.6286 C55.5818,4.6286 55.8718,4.9186 55.8718,5.2426 L55.8718,9.3106 L59.9418,9.3106 C60.2658,9.3106 60.5538,9.6006 60.5538,9.9246 L60.5538,11.1846 C60.5538,11.5426 60.2658,11.7606 59.9418,11.7606 L55.8718,11.7606 L55.8718,20.6906 C55.8718,23.9326 56.2298,24.7946 59.2218,24.7946 L59.9418,24.7946 C60.2658,24.7946 60.5538,25.0466 60.5538,25.4086 L60.5538,26.7046 C60.5538,27.0646 60.2658,27.3166 59.9418,27.3166 L58.8978,27.3166 C53.9638,27.3166 53.1718,25.1906 53.1718,20.9786" id="Fill-7" fill="#383838"></path>
                <path d="M75.3476,16.6212 C75.3476,13.2712 73.4056,11.3632 70.7036,11.3632 C68.0396,11.3632 66.0576,13.2712 66.0576,16.6212 L66.0576,17.1252 L75.3476,17.1252 L75.3476,16.6212 Z M70.7376,25.2632 C72.1096,25.2632 74.0556,24.9772 75.1336,22.2032 C75.2076,22.0232 75.3476,21.7712 75.7116,21.7712 L77.3676,21.7712 C77.6176,21.7712 77.7976,21.9512 77.7976,22.2032 C77.7976,22.3472 77.7256,22.4912 77.6516,22.7432 C76.4656,26.4892 73.2236,27.6752 70.7376,27.6752 C66.5616,27.6752 63.3196,24.7232 63.3196,19.6812 L63.3196,16.9452 C63.3196,11.9052 66.5276,8.9512 70.7036,8.9512 C74.8436,8.9512 78.0516,11.9772 78.0516,16.9112 L78.0516,18.7092 C78.0516,19.0712 77.7616,19.2852 77.4016,19.2852 L66.0576,19.2852 L66.0576,20.0792 C66.0576,23.2832 68.0736,25.2632 70.7376,25.2632 Z" id="Fill-9" fill="#383838"></path>
                <path d="M82.7618,26.7052 L82.7618,2.7212 C82.7618,2.3972 83.0118,2.1092 83.3758,2.1092 L84.8858,2.1092 C85.2118,2.1092 85.4958,2.3972 85.4958,2.7212 L85.4958,26.7052 C85.4958,27.0652 85.2118,27.3172 84.8858,27.3172 L83.3758,27.3172 C83.0118,27.3172 82.7618,27.0652 82.7618,26.7052" id="Fill-11" fill="#383838"></path>
                <path d="M91.1132,26.7052 L91.1132,2.7212 C91.1132,2.3972 91.3632,2.1092 91.7272,2.1092 L93.2372,2.1092 C93.5632,2.1092 93.8472,2.3972 93.8472,2.7212 L93.8472,26.7052 C93.8472,27.0652 93.5632,27.3172 93.2372,27.3172 L91.7272,27.3172 C91.3632,27.3172 91.1132,27.0652 91.1132,26.7052" id="Fill-13" fill="#383838"></path>
                <g id="Group-17" transform="translate(98.000000, 0.879000)">
                    <mask id="mask-2" fill="white">
                        <use xlink:href="#path-1"></use>
                    </mask>
                    <g id="Clip-16"></g>
                    <path d="M1.6094,25.8262 L1.6094,9.0442 C1.6094,8.7202 1.8234,8.4322 2.1834,8.4322 L3.6954,8.4322 C4.0594,8.4322 4.3094,8.7202 4.3094,9.0442 L4.3094,25.8262 C4.3094,26.1862 4.0594,26.4382 3.6954,26.4382 L2.1834,26.4382 C1.8234,26.4382 1.6094,26.1862 1.6094,25.8262 M4.7774,2.9582 C4.7774,4.0382 4.0194,4.7942 2.9414,4.7942 C1.8594,4.7942 1.1414,4.0382 1.1414,2.9582 C1.1414,1.8782 1.8594,1.1202 2.9414,1.1202 C4.0194,1.1202 4.7774,1.8782 4.7774,2.9582" id="Fill-15" fill="#383838" mask="url(#mask-2)"></path>
                </g>
                <path d="M110.371,15 C110.371,17.124 111.883,18.818 114.477,18.818 L115.269,18.818 C117.829,18.818 119.339,17.162 119.339,15.038 C119.339,12.876 117.863,11.184 115.269,11.184 L114.477,11.184 C111.883,11.184 110.371,12.876 110.371,15 M120.313,29.656 C120.313,27.858 119.305,26.56 116.567,26.56 L113.289,26.56 C110.551,26.56 109.543,27.858 109.543,29.656 C109.543,31.458 110.551,32.61 113.289,32.61 L116.567,32.61 C119.305,32.61 120.313,31.458 120.313,29.656 M122.977,29.656 C122.977,32.574 120.887,34.878 116.925,34.878 L112.929,34.878 C108.969,34.878 106.879,32.538 106.879,29.656 C106.879,27.82 107.637,26.454 109.113,25.552 C107.781,24.976 107.239,23.932 107.239,22.672 C107.239,21.158 108.067,19.862 110.011,19.502 C108.321,18.206 107.743,16.838 107.743,15 C107.743,11.508 110.411,8.952 114.297,8.952 L115.269,8.952 C116.747,8.952 118.223,9.382 119.485,10.462 L119.485,7.762 C119.485,7.402 119.735,7.15 120.059,7.15 L121.355,7.15 C121.715,7.15 122.003,7.402 122.003,7.762 L122.003,15 C122.003,18.53 119.411,21.05 115.449,21.05 L111.703,21.05 C110.481,21.05 109.723,21.554 109.723,22.708 C109.723,23.894 110.481,24.328 112.281,24.328 L116.925,24.328 C120.887,24.328 122.977,26.668 122.977,29.656" id="Fill-18" fill="#383838"></path>
                <path d="M137.7696,16.6212 C137.7696,13.2712 135.8276,11.3632 133.1256,11.3632 C130.4616,11.3632 128.4796,13.2712 128.4796,16.6212 L128.4796,17.1252 L137.7696,17.1252 L137.7696,16.6212 Z M133.1596,25.2632 C134.5316,25.2632 136.4776,24.9772 137.5556,22.2032 C137.6296,22.0232 137.7696,21.7712 138.1336,21.7712 L139.7896,21.7712 C140.0396,21.7712 140.2196,21.9512 140.2196,22.2032 C140.2196,22.3472 140.1476,22.4912 140.0736,22.7432 C138.8876,26.4892 135.6456,27.6752 133.1596,27.6752 C128.9836,27.6752 125.7416,24.7232 125.7416,19.6812 L125.7416,16.9452 C125.7416,11.9052 128.9496,8.9512 133.1256,8.9512 C137.2656,8.9512 140.4736,11.9772 140.4736,16.9112 L140.4736,18.7092 C140.4736,19.0712 140.1836,19.2852 139.8236,19.2852 L128.4796,19.2852 L128.4796,20.0792 C128.4796,23.2832 130.4956,25.2632 133.1596,25.2632 Z" id="Fill-20" fill="#383838"></path>
                <path d="M145.1484,26.7052 L145.1484,9.9232 C145.1484,9.5992 145.3624,9.3112 145.7224,9.3112 L147.2344,9.3112 C147.5944,9.3112 147.8484,9.5992 147.8484,9.9232 L147.8484,11.6872 C148.7464,10.2112 150.2224,8.9512 152.9264,8.9512 C157.3564,8.9512 159.6604,12.1912 159.6604,16.9452 L159.6604,26.7052 C159.6604,27.0652 159.4064,27.3172 159.0464,27.3172 L157.5344,27.3172 C157.1764,27.3172 156.9224,27.0652 156.9224,26.7052 L156.9224,16.7652 C156.9224,13.2712 155.0864,11.3632 152.3864,11.3632 C149.7184,11.3632 147.8484,13.2712 147.8484,16.7652 L147.8484,26.7052 C147.8484,27.0652 147.5944,27.3172 147.2344,27.3172 L145.7224,27.3172 C145.3624,27.3172 145.1484,27.0652 145.1484,26.7052" id="Fill-22" fill="#383838"></path>
                <path d="M171.5,25.2638 C173.696,25.2638 175.172,24.2198 175.894,21.5898 C175.964,21.2658 176.11,21.1578 176.36,21.1578 L178.09,21.1578 C178.344,21.1578 178.484,21.3378 178.484,21.5898 C178.484,21.6618 178.484,21.8438 178.45,22.0238 C178.054,24.2558 176,27.6758 171.5,27.6758 C167.36,27.6758 164.152,24.7218 164.152,19.6818 L164.152,16.9458 C164.152,11.9038 167.324,8.9518 171.5,8.9518 C175.786,8.9518 177.946,12.0478 178.484,14.8578 C178.484,14.9658 178.524,15.0378 178.524,15.0718 C178.524,15.3238 178.344,15.5038 178.126,15.5038 L176.398,15.5038 C176.074,15.5038 175.93,15.2518 175.894,15.0378 C175.316,12.7678 173.984,11.3638 171.5,11.3638 C168.8,11.3638 166.82,13.3078 166.82,16.7658 L166.82,19.8618 C166.82,23.3558 168.836,25.2638 171.5,25.2638" id="Fill-24" fill="#383838"></path>
                <path d="M194.289,16.6212 C194.289,13.2712 192.343,11.3632 189.645,11.3632 C186.977,11.3632 184.997,13.2712 184.997,16.6212 L184.997,17.1252 L194.289,17.1252 L194.289,16.6212 Z M189.679,25.2632 C191.047,25.2632 192.993,24.9772 194.075,22.2032 C194.145,22.0232 194.289,21.7712 194.649,21.7712 L196.305,21.7712 C196.559,21.7712 196.739,21.9512 196.739,22.2032 C196.739,22.3472 196.663,22.4912 196.593,22.7432 C195.407,26.4892 192.165,27.6752 189.679,27.6752 C185.503,27.6752 182.261,24.7232 182.261,19.6812 L182.261,16.9452 C182.261,11.9052 185.465,8.9512 189.645,8.9512 C193.785,8.9512 196.989,11.9772 196.989,16.9112 L196.989,18.7092 C196.989,19.0712 196.703,19.2852 196.339,19.2852 L184.997,19.2852 L184.997,20.0792 C184.997,23.2832 187.015,25.2632 189.679,25.2632 Z" id="Fill-26" fill="#383838"></path>
                <path d="M223.0898,26.7404 C223.0898,27.0644 222.8358,27.3164 222.5118,27.3164 L219.8478,27.3164 C219.1998,27.3164 218.8758,26.9564 218.6598,26.6324 L212.9678,17.7004 L207.3518,26.6324 C207.1358,26.9564 206.8478,27.3164 206.2738,27.3164 L203.8598,27.3164 C203.4998,27.3164 203.2458,27.0644 203.2458,26.7404 C203.2458,26.5604 203.3198,26.3804 203.4638,26.1644 L210.7378,14.7124 L203.8598,3.8384 C203.6438,3.4764 203.2858,3.0444 203.2858,2.7204 C203.2858,2.3624 203.5698,2.1104 203.8938,2.1104 L206.5978,2.1104 C207.1718,2.1104 207.4958,2.4684 207.7118,2.8284 L213.2218,11.5084 L218.8038,2.8284 C219.0538,2.4344 219.3438,2.1104 219.9218,2.1104 L222.3678,2.1104 C222.6918,2.1104 222.9458,2.3624 222.9458,2.7204 C222.9458,2.9724 222.6918,3.4064 222.5498,3.5864 L215.4538,14.5324 L222.6218,25.7324 C222.8358,26.1284 223.0898,26.4524 223.0898,26.7404" id="Fill-28" fill="#1585FF"></path>
            </g>
        </g>
    </g>
</svg>